<svg height="400pt" viewBox="-23 0 400 400.00388" width="400pt" xmlns="http://www.w3.org/2000/svg"><path d="m163.148438 18.011719c-33.453126 0-66.914063 9.390625-96.765626 27.164062-16.652343 9.960938-31.835937 22.183594-45.125 36.324219l1.511719-71.285156c.117188-5.519532-4.257812-10.09375-9.78125-10.214844h-.21875c-5.441406 0-9.886719 4.347656-10 9.789062l-2.074219 98.109376c-1.453124 3.699218-.578124 7.910156 2.230469 10.722656 2.808594 2.8125 7.019531 3.691406 10.71875 2.238281l98.117188-2.082031c5.523437-.054688 9.953125-4.578125 9.894531-10.101563-.054688-5.523437-4.578125-9.953125-10.101562-9.898437h-.214844l-80.308594 1.703125c13.085938-15.035157 28.46875-27.90625 45.582031-38.128907 26.757813-15.921874 56.683594-24.339843 86.535157-24.339843 48.078124 0 92.410156 19.835937 124.832031 55.859375 28.898437 32.117187 46.160156 75.160156 46.160156 115.140625 0 39.976562-17.257813 83.011719-46.160156 115.128906-32.421875 36.019531-76.753907 55.859375-124.832031 55.859375-28.1875.195312-55.953126-6.863281-80.625-20.5-22.644532-12.730469-42.175782-30.339844-57.179688-51.550781-3.15625-4.53125-9.390625-5.644531-13.921875-2.488281s-5.644531 9.390624-2.488281 13.921874c.039062.054688.078125.113282.121094.167969 16.738281 23.636719 38.523437 43.257813 63.773437 57.4375 27.636719 15.292969 58.738281 23.214844 90.320313 23.011719 53.824218 0 103.433593-22.1875 139.695312-62.480469 32.121094-35.691406 51.300781-83.730469 51.300781-128.507812 0-44.78125-19.175781-92.828125-51.300781-128.519531-36.257812-40.292969-85.875-62.480469-139.695312-62.480469zm0 0"/></svg>
